<?xml version="1.0" encoding="UTF-8" standalone="no"?>
<!DOCTYPE svg PUBLIC "-//W3C//DTD SVG 1.1//EN"
 "http://www.w3.org/Graphics/SVG/1.1/DTD/svg11.dtd">
<!-- Generated by graphviz version 7.1.0 (20230121.1956)
 -->
<!-- Pages: 1 -->
<svg width="642pt" height="692pt"
 viewBox="0.00 0.00 641.50 692.00" xmlns="http://www.w3.org/2000/svg" xmlns:xlink="http://www.w3.org/1999/xlink">
<g id="graph0" class="graph" transform="scale(1 1) rotate(0) translate(4 688)">
<polygon fill="white" stroke="none" points="-4,4 -4,-688 637.5,-688 637.5,4 -4,4"/>
<!-- 3 -->
<g id="node1" class="node">
<title>3</title>
<polygon fill="mistyrose" stroke="black" points="54,-36 0,-36 0,0 54,0 54,-36"/>
<text text-anchor="middle" x="27" y="-14.3" font-family="Times,serif" font-size="14.00">Pep</text>
</g>
<!-- 6 -->
<g id="node2" class="node">
<title>6</title>
<polygon fill="mistyrose" stroke="black" points="128,-36 72,-36 72,0 128,0 128,-36"/>
<text text-anchor="middle" x="100" y="-14.3" font-family="Times,serif" font-size="14.00">wanted</text>
</g>
<!-- 10 -->
<g id="node3" class="node">
<title>10</title>
<polygon fill="mistyrose" stroke="black" points="200,-36 146,-36 146,0 200,0 200,-36"/>
<text text-anchor="middle" x="173" y="-14.3" font-family="Times,serif" font-size="14.00">to</text>
</g>
<!-- 13 -->
<g id="node4" class="node">
<title>13</title>
<polygon fill="mistyrose" stroke="black" points="272,-36 218,-36 218,0 272,0 272,-36"/>
<text text-anchor="middle" x="245" y="-14.3" font-family="Times,serif" font-size="14.00">know</text>
</g>
<!-- 18 -->
<g id="node5" class="node">
<title>18</title>
<polygon fill="mistyrose" stroke="black" points="344,-36 290,-36 290,0 344,0 344,-36"/>
<text text-anchor="middle" x="317" y="-14.3" font-family="Times,serif" font-size="14.00">how</text>
</g>
<!-- 20 -->
<g id="node6" class="node">
<title>20</title>
<polygon fill="mistyrose" stroke="black" points="416,-36 362,-36 362,0 416,0 416,-36"/>
<text text-anchor="middle" x="389" y="-14.3" font-family="Times,serif" font-size="14.00">much</text>
</g>
<!-- 22 -->
<g id="node7" class="node">
<title>22</title>
<polygon fill="mistyrose" stroke="black" points="488,-36 434,-36 434,0 488,0 488,-36"/>
<text text-anchor="middle" x="461" y="-14.3" font-family="Times,serif" font-size="14.00">money</text>
</g>
<!-- 26 -->
<g id="node8" class="node">
<title>26</title>
<polygon fill="mistyrose" stroke="black" points="560,-36 506,-36 506,0 560,0 560,-36"/>
<text text-anchor="middle" x="533" y="-14.3" font-family="Times,serif" font-size="14.00">Paul</text>
</g>
<!-- 29 -->
<g id="node9" class="node">
<title>29</title>
<polygon fill="mistyrose" stroke="black" points="633.5,-36 578.5,-36 578.5,0 633.5,0 633.5,-36"/>
<text text-anchor="middle" x="606" y="-14.3" font-family="Times,serif" font-size="14.00">needed</text>
</g>
<!-- 0 -->
<g id="node10" class="node">
<title>0</title>
<polygon fill="lightcyan" stroke="black" points="91,-684 37,-684 37,-648 91,-648 91,-684"/>
<text text-anchor="middle" x="64" y="-662.3" font-family="Times,serif" font-size="14.00">S</text>
</g>
<!-- 1 -->
<g id="node11" class="node">
<title>1</title>
<polygon fill="lightcyan" stroke="black" points="55,-612 1,-612 1,-576 55,-576 55,-612"/>
<text text-anchor="middle" x="28" y="-590.3" font-family="Times,serif" font-size="14.00">NP</text>
</g>
<!-- 0&#45;&gt;1 -->
<g id="edge1" class="edge">
<title>0&#45;&gt;1</title>
<path fill="none" stroke="black" d="M55.1,-647.7C50.52,-638.8 44.88,-627.82 39.93,-618.2"/>
<polygon fill="black" stroke="black" points="36.8,-612.1 42.8,-616.89 38.4,-615.22 40,-618.33 40,-618.33 40,-618.33 38.4,-615.22 37.2,-619.77 36.8,-612.1 36.8,-612.1"/>
</g>
<!-- 4 -->
<g id="node13" class="node">
<title>4</title>
<polygon fill="lightcyan" stroke="black" points="127,-612 73,-612 73,-576 127,-576 127,-612"/>
<text text-anchor="middle" x="100" y="-590.3" font-family="Times,serif" font-size="14.00">VP</text>
</g>
<!-- 0&#45;&gt;4 -->
<g id="edge4" class="edge">
<title>0&#45;&gt;4</title>
<path fill="none" stroke="black" d="M72.9,-647.7C77.48,-638.8 83.12,-627.82 88.07,-618.2"/>
<polygon fill="black" stroke="black" points="91.2,-612.1 90.8,-619.77 89.6,-615.22 88,-618.33 88,-618.33 88,-618.33 89.6,-615.22 85.2,-616.89 91.2,-612.1 91.2,-612.1"/>
</g>
<!-- 2 -->
<g id="node12" class="node">
<title>2</title>
<polygon fill="lightcyan" stroke="black" points="54,-468 0,-468 0,-432 54,-432 54,-468"/>
<text text-anchor="middle" x="27" y="-446.3" font-family="Times,serif" font-size="14.00">NNP</text>
</g>
<!-- 1&#45;&gt;2 -->
<g id="edge2" class="edge">
<title>1&#45;&gt;2</title>
<path fill="none" stroke="black" d="M27.88,-575.59C27.7,-550.33 27.37,-503.43 27.17,-474.93"/>
<polygon fill="black" stroke="black" points="27.12,-468.11 30.32,-475.09 27.15,-471.61 27.17,-475.11 27.17,-475.11 27.17,-475.11 27.15,-471.61 24.02,-475.13 27.12,-468.11 27.12,-468.11"/>
</g>
<!-- 2&#45;&gt;3 -->
<g id="edge3" class="edge">
<title>2&#45;&gt;3</title>
<path fill="none" stroke="black" d="M27,-431.51C27,-404.71 27,-351.87 27,-307 27,-307 27,-307 27,-161 27,-119.64 27,-71.5 27,-43.23"/>
<polygon fill="black" stroke="black" points="27,-36.49 30.15,-43.49 27,-39.99 27,-43.49 27,-43.49 27,-43.49 27,-39.99 23.85,-43.49 27,-36.49 27,-36.49"/>
</g>
<!-- 5 -->
<g id="node14" class="node">
<title>5</title>
<polygon fill="lightcyan" stroke="black" points="127,-540 73,-540 73,-504 127,-504 127,-540"/>
<text text-anchor="middle" x="100" y="-518.3" font-family="Times,serif" font-size="14.00">VBD</text>
</g>
<!-- 4&#45;&gt;5 -->
<g id="edge5" class="edge">
<title>4&#45;&gt;5</title>
<path fill="none" stroke="black" d="M100,-575.7C100,-567.05 100,-556.45 100,-547.03"/>
<polygon fill="black" stroke="black" points="100,-540.1 103.15,-547.1 100,-543.6 100,-547.1 100,-547.1 100,-547.1 100,-543.6 96.85,-547.1 100,-540.1 100,-540.1"/>
</g>
<!-- 7 -->
<g id="node15" class="node">
<title>7</title>
<polygon fill="lightcyan" stroke="black" points="200,-540 146,-540 146,-504 200,-504 200,-540"/>
<text text-anchor="middle" x="173" y="-518.3" font-family="Times,serif" font-size="14.00">S</text>
</g>
<!-- 4&#45;&gt;7 -->
<g id="edge7" class="edge">
<title>4&#45;&gt;7</title>
<path fill="none" stroke="black" d="M118.04,-575.7C127.7,-566.44 139.68,-554.95 150,-545.06"/>
<polygon fill="black" stroke="black" points="154.91,-540.35 152.04,-547.47 152.38,-542.77 149.86,-545.19 149.86,-545.19 149.86,-545.19 152.38,-542.77 147.68,-542.92 154.91,-540.35 154.91,-540.35"/>
</g>
<!-- 5&#45;&gt;6 -->
<g id="edge6" class="edge">
<title>5&#45;&gt;6</title>
<path fill="none" stroke="black" d="M100,-503.51C100,-476.71 100,-423.87 100,-379 100,-379 100,-379 100,-161 100,-119.64 100,-71.5 100,-43.23"/>
<polygon fill="black" stroke="black" points="100,-36.49 103.15,-43.49 100,-39.99 100,-43.49 100,-43.49 100,-43.49 100,-39.99 96.85,-43.49 100,-36.49 100,-36.49"/>
</g>
<!-- 8 -->
<g id="node16" class="node">
<title>8</title>
<polygon fill="lightcyan" stroke="black" points="200,-468 146,-468 146,-432 200,-432 200,-468"/>
<text text-anchor="middle" x="173" y="-446.3" font-family="Times,serif" font-size="14.00">VP</text>
</g>
<!-- 7&#45;&gt;8 -->
<g id="edge8" class="edge">
<title>7&#45;&gt;8</title>
<path fill="none" stroke="black" d="M173,-503.7C173,-495.05 173,-484.45 173,-475.03"/>
<polygon fill="black" stroke="black" points="173,-468.1 176.15,-475.1 173,-471.6 173,-475.1 173,-475.1 173,-475.1 173,-471.6 169.85,-475.1 173,-468.1 173,-468.1"/>
</g>
<!-- 9 -->
<g id="node17" class="node">
<title>9</title>
<polygon fill="lightcyan" stroke="black" points="200,-396 146,-396 146,-360 200,-360 200,-396"/>
<text text-anchor="middle" x="173" y="-374.3" font-family="Times,serif" font-size="14.00">TO</text>
</g>
<!-- 8&#45;&gt;9 -->
<g id="edge9" class="edge">
<title>8&#45;&gt;9</title>
<path fill="none" stroke="black" d="M173,-431.7C173,-423.05 173,-412.45 173,-403.03"/>
<polygon fill="black" stroke="black" points="173,-396.1 176.15,-403.1 173,-399.6 173,-403.1 173,-403.1 173,-403.1 173,-399.6 169.85,-403.1 173,-396.1 173,-396.1"/>
</g>
<!-- 11 -->
<g id="node18" class="node">
<title>11</title>
<polygon fill="lightcyan" stroke="black" points="272,-396 218,-396 218,-360 272,-360 272,-396"/>
<text text-anchor="middle" x="245" y="-374.3" font-family="Times,serif" font-size="14.00">VP</text>
</g>
<!-- 8&#45;&gt;11 -->
<g id="edge11" class="edge">
<title>8&#45;&gt;11</title>
<path fill="none" stroke="black" d="M190.8,-431.7C200.32,-422.44 212.14,-410.95 222.31,-401.06"/>
<polygon fill="black" stroke="black" points="227.16,-396.35 224.33,-403.49 224.65,-398.79 222.14,-401.23 222.14,-401.23 222.14,-401.23 224.65,-398.79 219.94,-398.97 227.16,-396.35 227.16,-396.35"/>
</g>
<!-- 9&#45;&gt;10 -->
<g id="edge10" class="edge">
<title>9&#45;&gt;10</title>
<path fill="none" stroke="black" d="M173,-359.51C173,-332.71 173,-279.87 173,-235 173,-235 173,-235 173,-161 173,-119.64 173,-71.5 173,-43.23"/>
<polygon fill="black" stroke="black" points="173,-36.49 176.15,-43.49 173,-39.99 173,-43.49 173,-43.49 173,-43.49 173,-39.99 169.85,-43.49 173,-36.49 173,-36.49"/>
</g>
<!-- 12 -->
<g id="node19" class="node">
<title>12</title>
<polygon fill="lightcyan" stroke="black" points="272,-324 218,-324 218,-288 272,-288 272,-324"/>
<text text-anchor="middle" x="245" y="-302.3" font-family="Times,serif" font-size="14.00">VB</text>
</g>
<!-- 11&#45;&gt;12 -->
<g id="edge12" class="edge">
<title>11&#45;&gt;12</title>
<path fill="none" stroke="black" d="M245,-359.7C245,-351.05 245,-340.45 245,-331.03"/>
<polygon fill="black" stroke="black" points="245,-324.1 248.15,-331.1 245,-327.6 245,-331.1 245,-331.1 245,-331.1 245,-327.6 241.85,-331.1 245,-324.1 245,-324.1"/>
</g>
<!-- 14 -->
<g id="node20" class="node">
<title>14</title>
<polygon fill="lightcyan" stroke="black" points="446,-324 392,-324 392,-288 446,-288 446,-324"/>
<text text-anchor="middle" x="419" y="-302.3" font-family="Times,serif" font-size="14.00">SBAR</text>
</g>
<!-- 11&#45;&gt;14 -->
<g id="edge14" class="edge">
<title>11&#45;&gt;14</title>
<path fill="none" stroke="black" d="M272.19,-366.06C302.74,-353.77 352.38,-333.8 385.35,-320.54"/>
<polygon fill="black" stroke="black" points="391.72,-317.98 386.4,-323.51 388.47,-319.28 385.22,-320.59 385.22,-320.59 385.22,-320.59 388.47,-319.28 384.05,-317.67 391.72,-317.98 391.72,-317.98"/>
</g>
<!-- 12&#45;&gt;13 -->
<g id="edge13" class="edge">
<title>12&#45;&gt;13</title>
<path fill="none" stroke="black" d="M245,-287.54C245,-238.46 245,-99.2 245,-42.98"/>
<polygon fill="black" stroke="black" points="245,-36.23 248.15,-43.23 245,-39.73 245,-43.23 245,-43.23 245,-43.23 245,-39.73 241.85,-43.23 245,-36.23 245,-36.23"/>
</g>
<!-- 15 -->
<g id="node21" class="node">
<title>15</title>
<polygon fill="lightcyan" stroke="black" points="447.5,-252 390.5,-252 390.5,-216 447.5,-216 447.5,-252"/>
<text text-anchor="middle" x="419" y="-230.3" font-family="Times,serif" font-size="14.00">WHNP</text>
</g>
<!-- 14&#45;&gt;15 -->
<g id="edge15" class="edge">
<title>14&#45;&gt;15</title>
<path fill="none" stroke="black" d="M419,-287.7C419,-279.05 419,-268.45 419,-259.03"/>
<polygon fill="black" stroke="black" points="419,-252.1 422.15,-259.1 419,-255.6 419,-259.1 419,-259.1 419,-259.1 419,-255.6 415.85,-259.1 419,-252.1 419,-252.1"/>
</g>
<!-- 23 -->
<g id="node26" class="node">
<title>23</title>
<polygon fill="lightcyan" stroke="black" points="560,-252 506,-252 506,-216 560,-216 560,-252"/>
<text text-anchor="middle" x="533" y="-230.3" font-family="Times,serif" font-size="14.00">S</text>
</g>
<!-- 14&#45;&gt;23 -->
<g id="edge23" class="edge">
<title>14&#45;&gt;23</title>
<path fill="none" stroke="black" d="M446.31,-288.23C462.4,-278.35 482.88,-265.77 499.9,-255.33"/>
<polygon fill="black" stroke="black" points="505.52,-251.87 501.2,-258.22 502.54,-253.7 499.56,-255.54 499.56,-255.54 499.56,-255.54 502.54,-253.7 497.91,-252.85 505.52,-251.87 505.52,-251.87"/>
</g>
<!-- 16 -->
<g id="node22" class="node">
<title>16</title>
<polygon fill="lightcyan" stroke="black" points="416,-180 344,-180 344,-144 416,-144 416,-180"/>
<text text-anchor="middle" x="380" y="-158.3" font-family="Times,serif" font-size="14.00">WHADJP</text>
</g>
<!-- 15&#45;&gt;16 -->
<g id="edge16" class="edge">
<title>15&#45;&gt;16</title>
<path fill="none" stroke="black" d="M409.36,-215.7C404.4,-206.8 398.29,-195.82 392.93,-186.2"/>
<polygon fill="black" stroke="black" points="389.53,-180.1 395.69,-184.69 391.23,-183.16 392.94,-186.22 392.94,-186.22 392.94,-186.22 391.23,-183.16 390.18,-187.75 389.53,-180.1 389.53,-180.1"/>
</g>
<!-- 21 -->
<g id="node25" class="node">
<title>21</title>
<polygon fill="lightcyan" stroke="black" points="488,-180 434,-180 434,-144 488,-144 488,-180"/>
<text text-anchor="middle" x="461" y="-158.3" font-family="Times,serif" font-size="14.00">NN</text>
</g>
<!-- 15&#45;&gt;21 -->
<g id="edge21" class="edge">
<title>15&#45;&gt;21</title>
<path fill="none" stroke="black" d="M429.38,-215.7C434.77,-206.71 441.43,-195.61 447.25,-185.92"/>
<polygon fill="black" stroke="black" points="450.74,-180.1 449.84,-187.73 448.94,-183.11 447.14,-186.11 447.14,-186.11 447.14,-186.11 448.94,-183.11 444.43,-184.49 450.74,-180.1 450.74,-180.1"/>
</g>
<!-- 17 -->
<g id="node23" class="node">
<title>17</title>
<polygon fill="lightcyan" stroke="black" points="344,-108 290,-108 290,-72 344,-72 344,-108"/>
<text text-anchor="middle" x="317" y="-86.3" font-family="Times,serif" font-size="14.00">WRB</text>
</g>
<!-- 16&#45;&gt;17 -->
<g id="edge17" class="edge">
<title>16&#45;&gt;17</title>
<path fill="none" stroke="black" d="M364.43,-143.7C356.11,-134.46 345.79,-122.98 336.89,-113.11"/>
<polygon fill="black" stroke="black" points="332.39,-108.1 339.42,-111.2 334.74,-110.71 337.08,-113.31 337.08,-113.31 337.08,-113.31 334.74,-110.71 334.74,-115.41 332.39,-108.1 332.39,-108.1"/>
</g>
<!-- 19 -->
<g id="node24" class="node">
<title>19</title>
<polygon fill="lightcyan" stroke="black" points="416,-108 362,-108 362,-72 416,-72 416,-108"/>
<text text-anchor="middle" x="389" y="-86.3" font-family="Times,serif" font-size="14.00">JJ</text>
</g>
<!-- 16&#45;&gt;19 -->
<g id="edge19" class="edge">
<title>16&#45;&gt;19</title>
<path fill="none" stroke="black" d="M382.22,-143.7C383.34,-135.05 384.7,-124.45 385.91,-115.03"/>
<polygon fill="black" stroke="black" points="386.8,-108.1 389.03,-115.45 386.35,-111.58 385.91,-115.05 385.91,-115.05 385.91,-115.05 386.35,-111.58 382.78,-114.65 386.8,-108.1 386.8,-108.1"/>
</g>
<!-- 17&#45;&gt;18 -->
<g id="edge18" class="edge">
<title>17&#45;&gt;18</title>
<path fill="none" stroke="black" d="M317,-71.7C317,-63.05 317,-52.45 317,-43.03"/>
<polygon fill="black" stroke="black" points="317,-36.1 320.15,-43.1 317,-39.6 317,-43.1 317,-43.1 317,-43.1 317,-39.6 313.85,-43.1 317,-36.1 317,-36.1"/>
</g>
<!-- 19&#45;&gt;20 -->
<g id="edge20" class="edge">
<title>19&#45;&gt;20</title>
<path fill="none" stroke="black" d="M389,-71.7C389,-63.05 389,-52.45 389,-43.03"/>
<polygon fill="black" stroke="black" points="389,-36.1 392.15,-43.1 389,-39.6 389,-43.1 389,-43.1 389,-43.1 389,-39.6 385.85,-43.1 389,-36.1 389,-36.1"/>
</g>
<!-- 21&#45;&gt;22 -->
<g id="edge22" class="edge">
<title>21&#45;&gt;22</title>
<path fill="none" stroke="black" d="M461,-143.59C461,-118.33 461,-71.43 461,-42.93"/>
<polygon fill="black" stroke="black" points="461,-36.11 464.15,-43.11 461,-39.61 461,-43.11 461,-43.11 461,-43.11 461,-39.61 457.85,-43.11 461,-36.11 461,-36.11"/>
</g>
<!-- 24 -->
<g id="node27" class="node">
<title>24</title>
<polygon fill="lightcyan" stroke="black" points="560,-180 506,-180 506,-144 560,-144 560,-180"/>
<text text-anchor="middle" x="533" y="-158.3" font-family="Times,serif" font-size="14.00">NP</text>
</g>
<!-- 23&#45;&gt;24 -->
<g id="edge24" class="edge">
<title>23&#45;&gt;24</title>
<path fill="none" stroke="black" d="M533,-215.7C533,-207.05 533,-196.45 533,-187.03"/>
<polygon fill="black" stroke="black" points="533,-180.1 536.15,-187.1 533,-183.6 533,-187.1 533,-187.1 533,-187.1 533,-183.6 529.85,-187.1 533,-180.1 533,-180.1"/>
</g>
<!-- 27 -->
<g id="node29" class="node">
<title>27</title>
<polygon fill="lightcyan" stroke="black" points="632,-180 578,-180 578,-144 632,-144 632,-180"/>
<text text-anchor="middle" x="605" y="-158.3" font-family="Times,serif" font-size="14.00">VP</text>
</g>
<!-- 23&#45;&gt;27 -->
<g id="edge27" class="edge">
<title>23&#45;&gt;27</title>
<path fill="none" stroke="black" d="M550.8,-215.7C560.32,-206.44 572.14,-194.95 582.31,-185.06"/>
<polygon fill="black" stroke="black" points="587.16,-180.35 584.33,-187.49 584.65,-182.79 582.14,-185.23 582.14,-185.23 582.14,-185.23 584.65,-182.79 579.94,-182.97 587.16,-180.35 587.16,-180.35"/>
</g>
<!-- 25 -->
<g id="node28" class="node">
<title>25</title>
<polygon fill="lightcyan" stroke="black" points="560,-108 506,-108 506,-72 560,-72 560,-108"/>
<text text-anchor="middle" x="533" y="-86.3" font-family="Times,serif" font-size="14.00">NNP</text>
</g>
<!-- 24&#45;&gt;25 -->
<g id="edge25" class="edge">
<title>24&#45;&gt;25</title>
<path fill="none" stroke="black" d="M533,-143.7C533,-135.05 533,-124.45 533,-115.03"/>
<polygon fill="black" stroke="black" points="533,-108.1 536.15,-115.1 533,-111.6 533,-115.1 533,-115.1 533,-115.1 533,-111.6 529.85,-115.1 533,-108.1 533,-108.1"/>
</g>
<!-- 25&#45;&gt;26 -->
<g id="edge26" class="edge">
<title>25&#45;&gt;26</title>
<path fill="none" stroke="black" d="M533,-71.7C533,-63.05 533,-52.45 533,-43.03"/>
<polygon fill="black" stroke="black" points="533,-36.1 536.15,-43.1 533,-39.6 533,-43.1 533,-43.1 533,-43.1 533,-39.6 529.85,-43.1 533,-36.1 533,-36.1"/>
</g>
<!-- 28 -->
<g id="node30" class="node">
<title>28</title>
<polygon fill="lightcyan" stroke="black" points="632,-108 578,-108 578,-72 632,-72 632,-108"/>
<text text-anchor="middle" x="605" y="-86.3" font-family="Times,serif" font-size="14.00">VBD</text>
</g>
<!-- 27&#45;&gt;28 -->
<g id="edge28" class="edge">
<title>27&#45;&gt;28</title>
<path fill="none" stroke="black" d="M605,-143.7C605,-135.05 605,-124.45 605,-115.03"/>
<polygon fill="black" stroke="black" points="605,-108.1 608.15,-115.1 605,-111.6 605,-115.1 605,-115.1 605,-115.1 605,-111.6 601.85,-115.1 605,-108.1 605,-108.1"/>
</g>
<!-- 28&#45;&gt;29 -->
<g id="edge29" class="edge">
<title>28&#45;&gt;29</title>
<path fill="none" stroke="black" d="M605.25,-71.7C605.37,-63.05 605.52,-52.45 605.66,-43.03"/>
<polygon fill="black" stroke="black" points="605.76,-36.1 608.81,-43.15 605.71,-39.6 605.66,-43.1 605.66,-43.1 605.66,-43.1 605.71,-39.6 602.51,-43.06 605.76,-36.1 605.76,-36.1"/>
</g>
</g>
</svg>
